<!DOCTYPE svg PUBLIC "-//W3C//DTD SVG 1.1//EN" "http://www.w3.org/Graphics/SVG/1.1/DTD/svg11.dtd">
<!-- Uploaded to: SVG Repo, www.svgrepo.com, Transformed by: SVG Repo Mixer Tools -->
<svg width="800px" height="800px" viewBox="0 0 24 24" fill="none" xmlns="http://www.w3.org/2000/svg">
<g id="SVGRepo_bgCarrier" stroke-width="0"/>
<g id="SVGRepo_tracerCarrier" stroke-linecap="round" stroke-linejoin="round"/>
<g id="SVGRepo_iconCarrier"> <path d="M22 8.16162L20.8676 15.3333C20.6618 16.7475 19.5294 17.6566 18.0882 17.6566H8.20588C6.86765 17.6566 5.63235 16.6465 5.42647 15.3333L4.19118 6.94949L3.88235 4.62626C3.77941 4.0202 3.26471 3.61616 2.54412 3.61616H1.82353C1.41176 3.61616 1 3.21212 1 2.80808C1 2.40404 1.41176 2 1.82353 2H2.54412C3.98529 2 5.22059 3.0101 5.32353 4.42424L5.52941 6.0404H20.1471C20.6618 6.0404 21.1765 6.24242 21.4853 6.64647C21.8971 7.05051 22 7.65657 22 8.16162Z" fill="#f5f5f5"/> <path d="M18.2941 22C18.8626 22 19.3235 21.5478 19.3235 20.9899C19.3235 20.432 18.8626 19.9798 18.2941 19.9798C17.7256 19.9798 17.2647 20.432 17.2647 20.9899C17.2647 21.5478 17.7256 22 18.2941 22Z" fill="#f5f5f5"/> <path d="M8 22C8.56853 22 9.02941 21.5478 9.02941 20.9899C9.02941 20.432 8.56853 19.9798 8 19.9798C7.43147 19.9798 6.97059 20.432 6.97059 20.9899C6.97059 21.5478 7.43147 22 8 22Z" fill="#f5f5f5"/> </g>
</svg>