<svg width="16" height="17" viewBox="0 0 16 17" fill="none" xmlns="http://www.w3.org/2000/svg">
<path d="M15.5459 14.4541C15.7572 14.6654 15.876 14.952 15.876 15.2509C15.876 15.5498 15.7572 15.8365 15.5459 16.0478C15.3346 16.2592 15.0479 16.3779 14.749 16.3779C14.4501 16.3779 14.1635 16.2592 13.9521 16.0478L7.99996 10.0937L2.0459 16.0459C1.83455 16.2573 1.54791 16.376 1.24902 16.376C0.950136 16.376 0.663491 16.2573 0.452147 16.0459C0.240802 15.8346 0.12207 15.5479 0.12207 15.2491C0.12207 14.9502 0.240803 14.6635 0.452147 14.4522L6.40621 8.5L0.454022 2.54593C0.242677 2.33459 0.123945 2.04795 0.123945 1.74906C0.123945 1.45017 0.242677 1.16353 0.454022 0.952184C0.665366 0.74084 0.95201 0.622107 1.2509 0.622107C1.54978 0.622107 1.83643 0.74084 2.04777 0.952184L7.99996 6.90625L13.954 0.951246C14.1654 0.739902 14.452 0.62117 14.7509 0.62117C15.0498 0.62117 15.3364 0.739902 15.5478 0.951246C15.7591 1.16259 15.8778 1.44924 15.8778 1.74812C15.8778 2.04701 15.7591 2.33365 15.5478 2.545L9.59371 8.5L15.5459 14.4541Z" fill="black" fill-opacity="0.4"/>
</svg>
