<svg width="24" height="25" viewBox="0 0 24 25" fill="none" xmlns="http://www.w3.org/2000/svg">
<g filter="url(#filter0_d_39_1400)">
<path d="M13.9133 3.71169L19.5383 9.33669C19.6257 9.42379 19.695 9.52728 19.7423 9.64124C19.7897 9.75519 19.814 9.87737 19.814 10.0008C19.814 10.1241 19.7897 10.2463 19.7423 10.3603C19.695 10.4742 19.6257 10.5777 19.5383 10.6648L13.9133 16.2898C13.7372 16.4659 13.4983 16.5649 13.2492 16.5649C13.0001 16.5649 12.7613 16.4659 12.5852 16.2898C12.409 16.1137 12.3101 15.8748 12.3101 15.6258C12.3101 15.3767 12.409 15.1378 12.5852 14.9617L16.6094 10.9375L5.125 10.9375C4.87636 10.9375 4.6379 10.8387 4.46209 10.6629C4.28627 10.4871 4.1875 10.2486 4.1875 9.99997C4.1875 9.75133 4.28627 9.51288 4.46209 9.33706C4.6379 9.16125 4.87636 9.06247 5.125 9.06247L16.6094 9.06247L12.5844 5.03826C12.4083 4.86214 12.3093 4.62326 12.3093 4.37419C12.3093 4.12512 12.4083 3.88625 12.5844 3.71013C12.7605 3.53401 12.9994 3.43506 13.2484 3.43506C13.4975 3.43506 13.7364 3.53401 13.9125 3.71013L13.9133 3.71169Z" fill="white"/>
</g>
<defs>
<filter id="filter0_d_39_1400" x="-2" y="0" width="28" height="28" filterUnits="userSpaceOnUse" color-interpolation-filters="sRGB">
<feFlood flood-opacity="0" result="BackgroundImageFix"/>
<feColorMatrix in="SourceAlpha" type="matrix" values="0 0 0 0 0 0 0 0 0 0 0 0 0 0 0 0 0 0 127 0" result="hardAlpha"/>
<feOffset dy="4"/>
<feGaussianBlur stdDeviation="2"/>
<feComposite in2="hardAlpha" operator="out"/>
<feColorMatrix type="matrix" values="0 0 0 0 0 0 0 0 0 0 0 0 0 0 0 0 0 0 0.25 0"/>
<feBlend mode="normal" in2="BackgroundImageFix" result="effect1_dropShadow_39_1400"/>
<feBlend mode="normal" in="SourceGraphic" in2="effect1_dropShadow_39_1400" result="shape"/>
</filter>
</defs>
</svg>
