<svg width="28" height="28" viewBox="0 0 28 28" fill="none" xmlns="http://www.w3.org/2000/svg">
<path d="M14 28C21.732 28 28 21.732 28 14C28 6.26801 21.732 0 14 0C6.26801 0 0 6.26801 0 14C0 21.732 6.26801 28 14 28Z" fill="white"/>
<path d="M14 27.5C21.4558 27.5 27.5 21.4558 27.5 14C27.5 6.54416 21.4558 0.5 14 0.5C6.54416 0.5 0.5 6.54416 0.5 14C0.5 21.4558 6.54416 27.5 14 27.5Z" stroke="black" stroke-opacity="0.2"/>
<path fill-rule="evenodd" clip-rule="evenodd" d="M14.607 7.22656C11.016 7.22656 8.127 10.1155 8.127 13.7065C8.127 16.5684 9.98999 18.9984 12.555 19.8624C12.879 19.9164 12.987 19.7274 12.987 19.5384C12.987 19.3764 12.987 18.9714 12.987 18.4314C11.178 18.8364 10.8 17.5674 10.8 17.5674C10.503 16.8114 10.071 16.6224 10.071 16.6224C9.477 16.2174 10.125 16.2174 10.125 16.2174C10.773 16.2714 11.124 16.8924 11.124 16.8924C11.691 17.8914 12.636 17.5944 13.014 17.4324C13.068 17.0004 13.23 16.7304 13.419 16.5684C11.988 16.4064 10.476 15.8394 10.476 13.3555C10.476 12.6535 10.719 12.0595 11.151 11.6275C11.097 11.4655 10.854 10.8175 11.205 9.89952C11.205 9.89952 11.745 9.73752 12.987 10.5745C13.5 10.4395 14.067 10.3585 14.607 10.3585C15.147 10.3585 15.714 10.4395 16.227 10.5745C17.469 9.73752 18.009 9.89952 18.009 9.89952C18.36 10.7905 18.144 11.4385 18.063 11.6275C18.468 12.0865 18.738 12.6535 18.738 13.3555C18.738 15.8394 17.226 16.3794 15.768 16.5414C16.011 16.7304 16.2 17.1354 16.2 17.7294C16.2 18.5934 16.2 19.2954 16.2 19.5114C16.2 19.6734 16.308 19.8894 16.659 19.8354C19.224 18.9984 21.087 16.5684 21.087 13.7065C21.087 10.1155 18.198 7.22656 14.607 7.22656Z" fill="black"/>
</svg>
